M48
; DRILL file KiCad 9.99.0-4247-g42f93c0d15 date 2026-05-05T14:31:15-0400
; FORMAT={-:-/ absolute / metric / decimal}
; #@! TF.CreationDate,2026-05-05T14:31:15-04:00
; #@! TF.GenerationSoftware,Kicad,Pcbnew,9.99.0-4247-g42f93c0d15
; #@! TF.FileFunction,Plated,1,2,PTH
FMAT,2
METRIC
; #@! TA.AperFunction,Plated,PTH,ComponentDrill
T1C0.800
; #@! TA.AperFunction,Plated,PTH,ComponentDrill
T2C1.000
; #@! TA.AperFunction,Plated,PTH,ComponentDrill
T3C1.500
%
G90
G05
T1
X162.475Y-111.165
X162.475Y-118.785
X162.475Y-131.075
X162.475Y-138.695
X181.525Y-111.165
X181.525Y-118.785
X181.525Y-131.075
X181.525Y-138.695
X200.575Y-111.165
X200.575Y-118.785
X200.575Y-131.075
X200.575Y-138.695
T2
X145.0Y-93.485
X145.0Y-96.025
X145.0Y-98.565
X145.0Y-101.105
X183.605Y-90.25
X183.605Y-105.5
X186.145Y-90.25
X186.145Y-105.5
X188.685Y-90.25
X188.685Y-105.5
X191.225Y-90.25
X191.225Y-105.5
X193.765Y-90.25
X193.765Y-105.5
X196.305Y-90.25
X196.305Y-105.5
X198.845Y-90.25
X198.845Y-105.5
T3
X149.135Y-113.65
X149.135Y-133.56
X155.485Y-111.11
X155.485Y-131.02
X168.185Y-113.65
X168.185Y-133.56
X174.535Y-111.11
X174.535Y-131.02
X187.235Y-113.64
X187.235Y-133.56
X193.585Y-111.1
X193.585Y-131.02
M30
